<svg viewBox="0 0 84 28" xmlns="http://www.w3.org/2000/svg" xmlns:xlink="http://www.w3.org/1999/xlink" width="84.000000" height="28.000000" fill="none" customFrame="#000000">
	<path id="MetaV" d="M1.232 22.448L1.232 6.608L4.422 6.608L10.164 13.45L15.884 6.608L19.096 6.608L19.096 22.448L16.17 22.448L16.17 10.832L10.164 17.982L4.136 10.854L4.136 22.448L1.232 22.448ZM24.5682 22.448C24.0108 22.448 23.5048 22.3087 23.0502 22.03C22.5955 21.7513 22.2288 21.3847 21.9502 20.93C21.6715 20.4753 21.5322 19.9693 21.5322 19.412L21.5322 12.724C21.5322 12.1667 21.6715 11.6607 21.9502 11.206C22.2288 10.7513 22.5955 10.3847 23.0502 10.106C23.5048 9.82733 24.0108 9.688 24.5682 9.688L31.4542 9.688C32.0115 9.688 32.5175 9.82733 32.9722 10.106C33.4415 10.3847 33.8082 10.7513 34.0722 11.206C34.3508 11.6607 34.4902 12.1667 34.4902 12.724L34.4902 17.52L24.4142 17.52L24.4142 19.302C24.4142 19.3753 24.4362 19.4413 24.4802 19.5C24.5388 19.544 24.6048 19.566 24.6782 19.566L34.4902 19.566L34.4902 22.448L24.5682 22.448L24.5682 22.448ZM24.4142 14.924L31.6082 14.924L31.6082 12.834C31.6082 12.7607 31.5788 12.702 31.5202 12.658C31.4762 12.5993 31.4175 12.57 31.3442 12.57L24.6782 12.57C24.6048 12.57 24.5388 12.5993 24.4802 12.658C24.4362 12.702 24.4142 12.7607 24.4142 12.834L24.4142 14.924ZM39.8446 22.448C39.2872 22.448 38.7812 22.3087 38.3266 22.03C37.8719 21.7513 37.5052 21.3847 37.2266 20.93C36.9479 20.4753 36.8086 19.9693 36.8086 19.412L36.8086 5.772L39.6906 5.772L39.6906 9.688L44.6626 9.688L44.6626 12.57L39.6906 12.57L39.6906 19.302C39.6906 19.3753 39.7126 19.4413 39.7566 19.5C39.8152 19.544 39.8812 19.566 39.9546 19.566L44.6626 19.566L44.6626 22.448L39.8446 22.448L39.8446 22.448ZM49.9202 22.448C49.3629 22.448 48.8496 22.3087 48.3802 22.03C47.9256 21.7513 47.5589 21.3847 47.2802 20.93C47.0162 20.4753 46.8842 19.9693 46.8842 19.412L46.8842 14.616L56.9602 14.616L56.9602 12.834C56.9602 12.7607 56.9309 12.702 56.8722 12.658C56.8282 12.5993 56.7696 12.57 56.6962 12.57L46.8842 12.57L46.8842 9.688L56.8062 9.688C57.3636 9.688 57.8696 9.82733 58.3242 10.106C58.7936 10.3847 59.1602 10.7513 59.4242 11.206C59.7029 11.6607 59.8422 12.1667 59.8422 12.724L59.8422 22.448L49.9202 22.448ZM50.0302 19.566L56.9602 19.566L56.9602 17.212L49.7662 17.212L49.7662 19.302C49.7662 19.3753 49.7882 19.4413 49.8322 19.5C49.8909 19.544 49.9569 19.566 50.0302 19.566ZM70.9596 22.448L70.9596 22.448L61.7856 6.608L65.1736 6.608L72.2576 18.928L79.3636 6.608L82.7296 6.608L73.5556 22.448L70.9596 22.448Z" fill="rgb(255,255,255)" fill-rule="nonzero" />
</svg>
